<?xml version="1.0" encoding="UTF-8"?>
<svg id="Layer_1" xmlns="http://www.w3.org/2000/svg" version="1.1" viewBox="0 0 300 600">
  <!-- Generator: Adobe Illustrator 29.8.1, SVG Export Plug-In . SVG Version: 2.1.1 Build 2)  -->
  <path d="M19.15,44.75l-1.27-.04.73,1.05-.71.42-.64-1.13-.64,1.13-.71-.42.73-1.05-1.27.04v-.78l1.27.04-.73-1.05.71-.42.64,1.13.64-1.13.71.42-.73,1.05,1.27-.04v.78Z"/>
  <path d="M33.28,48.35c0,2.34-1.78,4.33-4.79,4.33s-5.14-2.27-5.14-5.07,2.13-5.07,5.14-5.07c1.83,0,3.43.97,4.24,2.41l-.87.5c-.6-1.18-1.9-1.96-3.38-1.96-2.48,0-4.16,1.83-4.16,4.12s1.68,4.12,4.16,4.12c2.28,0,3.6-1.32,3.78-2.96h-3.89v-.92h4.9v.5Z"/>
  <path d="M41.21,49.04c0,.14-.01.29-.03.43h-6.15c.2,1.43,1.3,2.31,2.79,2.31,1.11,0,1.88-.52,2.26-1.19l.81.48c-.59.95-1.67,1.61-3.08,1.61-2.21,0-3.73-1.55-3.73-3.67s1.48-3.67,3.66-3.67,3.47,1.78,3.47,3.7ZM35.03,48.58h5.23c-.2-1.54-1.32-2.34-2.52-2.34-1.47,0-2.52.97-2.7,2.34Z"/>
  <path d="M51.48,45.51l-2.16,7h-1.01l-1.81-5.65-1.81,5.65h-1.01l-2.16-7h.95l1.72,5.81,1.83-5.81h.92l1.83,5.81,1.72-5.81h.95Z"/>
  <path d="M52.17,43.35c0-.36.29-.67.67-.67s.67.31.67.67-.29.67-.67.67-.67-.31-.67-.67ZM52.38,45.51h.92v7h-.92v-7Z"/>
  <path d="M60.93,48.21v4.3h-.92v-4.3c0-1.25-.69-1.98-1.9-1.98s-2.27.73-2.27,2.61v3.67h-.92v-7h.92v1.09c.55-.88,1.36-1.26,2.35-1.26,1.71,0,2.75,1.12,2.75,2.87Z"/>
  <path d="M68.46,48.21v4.3h-.92v-4.3c0-1.25-.69-1.98-1.9-1.98s-2.27.73-2.27,2.61v3.67h-.92v-7h.92v1.09c.55-.88,1.36-1.26,2.35-1.26,1.71,0,2.75,1.12,2.75,2.87Z"/>
  <path d="M74.71,50.67c0,1.19-1.04,2.02-2.54,2.02-1.4,0-2.35-.71-2.7-1.61l.78-.46c.25.71.98,1.18,1.92,1.18.83,0,1.61-.29,1.61-1.12,0-1.74-4.09-.74-4.09-3.32,0-1.12.99-2,2.4-2,1.15,0,2.04.56,2.45,1.43l-.77.45c-.29-.71-1.01-.98-1.68-.98-.73,0-1.47.35-1.47,1.11,0,1.74,4.09.74,4.09,3.32Z"/>
  <path d="M83.24,49.01c0,2.07-1.64,3.67-3.61,3.67-1.25,0-2.24-.6-2.83-1.54v4.17h-.92v-9.81h.92v1.37c.59-.94,1.58-1.54,2.83-1.54,1.98,0,3.61,1.6,3.61,3.67ZM82.31,49.01c0-1.55-1.2-2.77-2.76-2.77s-2.76,1.22-2.76,2.77,1.2,2.77,2.76,2.77,2.76-1.22,2.76-2.77Z"/>
  <path d="M84.2,43.35c0-.36.29-.67.67-.67s.67.31.67.67-.29.67-.67.67-.67-.31-.67-.67ZM84.41,45.51h.92v7h-.92v-7Z"/>
  <path d="M93.62,49.04c0,.14-.01.29-.03.43h-6.15c.2,1.43,1.3,2.31,2.79,2.31,1.11,0,1.88-.52,2.26-1.19l.81.48c-.59.95-1.67,1.61-3.08,1.61-2.21,0-3.73-1.55-3.73-3.67s1.48-3.67,3.66-3.67,3.47,1.78,3.47,3.7ZM87.44,48.58h5.23c-.2-1.54-1.32-2.34-2.52-2.34-1.47,0-2.52.97-2.7,2.34Z"/>
  <path d="M94.79,42.29h.92v10.23h-.92v-10.23Z"/>
  <path d="M106.5,45.51l-2.87,7h-1.12l-2.87-7h.98l2.45,6.04,2.45-6.04h.98Z"/>
  <path d="M106.53,49.01c0-2.07,1.64-3.67,3.68-3.67s3.68,1.6,3.68,3.67-1.64,3.67-3.68,3.67-3.68-1.6-3.68-3.67ZM112.97,49.01c0-1.55-1.2-2.77-2.76-2.77s-2.76,1.22-2.76,2.77,1.2,2.77,2.76,2.77,2.76-1.22,2.76-2.77Z"/>
  <path d="M121.12,48.21v4.3h-.92v-4.3c0-1.25-.69-1.98-1.9-1.98s-2.27.73-2.27,2.61v3.67h-.92v-7h.92v1.09c.55-.88,1.36-1.26,2.35-1.26,1.71,0,2.75,1.12,2.75,2.87Z"/>
  <path d="M125.43,47.61c0-3.03,1.32-5.07,3.71-5.07s3.71,2.05,3.71,5.07-1.32,5.07-3.71,5.07-3.71-2.04-3.71-5.07ZM131.87,47.61c0-2.62-1.01-4.12-2.73-4.12s-2.73,1.5-2.73,4.12,1.01,4.12,2.73,4.12,2.73-1.5,2.73-4.12Z"/>
  <path d="M140.14,49.45c0,1.92-1.39,3.24-3.29,3.24s-3.29-1.32-3.29-3.24c0-.77.22-1.43.6-1.96l3.21-4.78h1.11l-2.41,3.59c.25-.06.52-.08.78-.08,1.91,0,3.29,1.32,3.29,3.24ZM139.16,49.45c0-1.37-.92-2.28-2.31-2.28s-2.31.91-2.31,2.28.92,2.28,2.31,2.28,2.31-.91,2.31-2.28Z"/>
  <path d="M141.07,51.88c0-.43.34-.77.77-.77s.77.34.77.77-.34.77-.77.77-.77-.34-.77-.77Z"/>
  <path d="M145.97,42.71v9.81h-.98v-8.73l-2.2.66-.25-.84,2.59-.9h.84Z"/>
  <path d="M147.46,47.61c0-3.03,1.32-5.07,3.71-5.07s3.71,2.05,3.71,5.07-1.32,5.07-3.71,5.07-3.71-2.04-3.71-5.07ZM153.9,47.61c0-2.62-1.01-4.12-2.73-4.12s-2.73,1.5-2.73,4.12,1.01,4.12,2.73,4.12,2.73-1.5,2.73-4.12Z"/>
  <path d="M155.71,51.88c0-.43.34-.77.77-.77s.77.34.77.77-.34.77-.77.77-.77-.34-.77-.77Z"/>
  <path d="M162.01,47.74h5.04v.9h-5.04v-.9Z"/>
  <path d="M171.67,47.61c0-3.03,1.32-5.07,3.71-5.07s3.71,2.05,3.71,5.07-1.32,5.07-3.71,5.07-3.71-2.04-3.71-5.07ZM178.11,47.61c0-2.62-1.01-4.12-2.73-4.12s-2.73,1.5-2.73,4.12,1.01,4.12,2.73,4.12,2.73-1.5,2.73-4.12Z"/>
  <path d="M182.77,42.71v9.81h-.98v-8.73l-2.2.66-.25-.84,2.59-.9h.84Z"/>
  <path d="M184.39,51.88c0-.43.34-.77.77-.77s.77.34.77.77-.34.77-.77.77-.77-.34-.77-.77Z"/>
  <path d="M189.29,42.71v9.81h-.98v-8.73l-2.2.66-.25-.84,2.59-.9h.84Z"/>
  <path d="M193.55,42.71v9.81h-.98v-8.73l-2.2.66-.25-.84,2.59-.9h.84Z"/>
  <path d="M195.17,51.88c0-.43.34-.77.77-.77s.77.34.77.77-.34.77-.77.77-.77-.34-.77-.77Z"/>
  <path d="M197.95,51.63l3.53-3.56c.83-.83,1.51-1.68,1.51-2.59,0-1.33-.97-1.99-1.98-1.99-.95,0-1.72.42-2.2,1.39l-.83-.49c.63-1.25,1.78-1.85,3.03-1.85,1.46,0,2.96,1.02,2.96,2.94,0,1.25-.83,2.3-1.82,3.29l-2.8,2.79h4.83v.95h-6.23v-.88Z"/>
  <path d="M204.82,47.61c0-3.03,1.32-5.07,3.71-5.07s3.71,2.05,3.71,5.07-1.32,5.07-3.71,5.07-3.71-2.04-3.71-5.07ZM211.26,47.61c0-2.62-1.01-4.12-2.73-4.12s-2.73,1.5-2.73,4.12,1.01,4.12,2.73,4.12,2.73-1.5,2.73-4.12Z"/>
  <path d="M212.79,51.63l3.53-3.56c.83-.83,1.51-1.68,1.51-2.59,0-1.33-.97-1.99-1.97-1.99-.95,0-1.72.42-2.2,1.39l-.83-.49c.63-1.25,1.78-1.85,3.03-1.85,1.46,0,2.96,1.02,2.96,2.94,0,1.25-.83,2.3-1.82,3.29l-2.8,2.79h4.83v.95h-6.23v-.88Z"/>
  <path d="M226.01,49.67c0,1.95-1.57,3.01-3.29,3.01-1.42,0-2.72-.7-3.15-2.09l.83-.48c.28,1.08,1.21,1.61,2.33,1.61,1.27,0,2.31-.7,2.31-2.06s-1.04-2.06-2.31-2.06h-2.66l.35-4.9h5.25v.92h-4.38l-.21,3.03h1.65c1.72,0,3.29,1.06,3.29,3.01Z"/>
  <path d="M227.04,51.88c0-.43.34-.77.77-.77s.77.34.77.77-.34.77-.77.77-.77-.34-.77-.77Z"/>
  <path d="M14.92,72.71h1.04l2.42,8.47,2.55-8.47h1.15l2.55,8.47,2.42-8.47h1.04l-2.84,9.81h-1.18l-2.56-8.52-2.56,8.52h-1.18l-2.84-9.81Z"/>
  <path d="M35.3,79.04c0,.14-.01.29-.03.43h-6.15c.2,1.43,1.3,2.31,2.79,2.31,1.11,0,1.88-.52,2.26-1.19l.81.48c-.59.95-1.67,1.61-3.08,1.61-2.21,0-3.73-1.55-3.73-3.67s1.48-3.67,3.66-3.67,3.47,1.78,3.47,3.7ZM29.13,78.58h5.23c-.2-1.54-1.32-2.34-2.52-2.34-1.47,0-2.52.97-2.7,2.34Z"/>
  <path d="M36.22,73.35c0-.36.29-.67.67-.67s.67.31.67.67-.29.67-.67.67-.67-.31-.67-.67ZM36.43,75.51h.92v7h-.92v-7Z"/>
  <path d="M40.55,76.41v4.24c0,1.2.66,1.11,2.02,1.05v.81c-1.89.28-2.94-.18-2.94-1.86v-4.24h-1.47v-.9h1.47v-1.68l.92-.28v1.96h2.02v.9h-2.02Z"/>
  <path d="M50.05,79.04c0,.14-.01.29-.03.43h-6.15c.2,1.43,1.3,2.31,2.79,2.31,1.11,0,1.88-.52,2.26-1.19l.81.48c-.59.95-1.67,1.61-3.08,1.61-2.21,0-3.73-1.55-3.73-3.67s1.48-3.67,3.66-3.67,3.47,1.78,3.47,3.7ZM43.87,78.58h5.23c-.2-1.54-1.32-2.34-2.52-2.34-1.47,0-2.52.97-2.7,2.34Z"/>
  <path d="M54.35,75.4v.9c-1.12,0-2.21.59-2.21,2.33v3.89h-.92v-7h.92v1.16c.49-.98,1.32-1.27,2.21-1.27Z"/>
  <path d="M61.64,79.04c0,.14-.01.29-.03.43h-6.15c.2,1.43,1.3,2.31,2.79,2.31,1.11,0,1.88-.52,2.26-1.19l.81.48c-.59.95-1.67,1.61-3.08,1.61-2.21,0-3.73-1.55-3.73-3.67s1.48-3.67,3.66-3.67,3.47,1.78,3.47,3.7ZM55.46,78.58h5.23c-.2-1.54-1.32-2.34-2.52-2.34-1.47,0-2.52.97-2.7,2.34Z"/>
  <path d="M67.02,72.71v9.81h-.98v-9.81h.98Z"/>
  <path d="M74.78,78.21v4.3h-.92v-4.3c0-1.25-.69-1.98-1.9-1.98s-2.27.73-2.27,2.61v3.67h-.92v-7h.92v1.09c.55-.88,1.36-1.26,2.35-1.26,1.71,0,2.75,1.12,2.75,2.87Z"/>
  <path d="M77.55,75.23v.28h2.02v.9h-2.02v6.11h-.92v-6.11h-1.19v-.9h1.19v-.28c0-1.82,1.05-2.83,2.94-2.69v.9c-1.36-.11-2.02.45-2.02,1.79Z"/>
  <path d="M79.62,79.01c0-2.07,1.64-3.67,3.68-3.67s3.68,1.6,3.68,3.67-1.64,3.67-3.68,3.67-3.68-1.6-3.68-3.67ZM86.07,79.01c0-1.55-1.2-2.77-2.76-2.77s-2.76,1.22-2.76,2.77,1.2,2.77,2.76,2.77,2.76-1.22,2.76-2.77Z"/>
  <path d="M92.87,80.67c0,1.19-1.04,2.02-2.54,2.02-1.4,0-2.35-.71-2.7-1.61l.78-.46c.25.71.98,1.18,1.92,1.18.83,0,1.61-.29,1.61-1.12,0-1.74-4.09-.74-4.09-3.32,0-1.12.99-2,2.4-2,1.15,0,2.04.56,2.45,1.43l-.77.45c-.29-.71-1.01-.98-1.68-.98-.73,0-1.47.35-1.47,1.11,0,1.74,4.09.74,4.09,3.32Z"/>
  <path d="M103.07,75.51v7h-.92v-1.09c-.55.88-1.36,1.26-2.35,1.26-1.71,0-2.75-1.12-2.75-2.87v-4.3h.92v4.3c0,1.25.69,1.98,1.91,1.98s2.27-.73,2.27-2.61v-3.67h.92Z"/>
  <path d="M110.7,78.21v4.3h-.92v-4.3c0-1.25-.69-1.98-1.9-1.98s-2.27.73-2.27,2.61v3.67h-.92v-7h.92v1.09c.55-.88,1.36-1.26,2.35-1.26,1.71,0,2.75,1.12,2.75,2.87Z"/>
  <path d="M119.15,72.71v9.81h-.92v-1.37c-.59.94-1.58,1.54-2.83,1.54-1.98,0-3.61-1.6-3.61-3.67s1.64-3.67,3.61-3.67c1.25,0,2.24.6,2.83,1.54v-4.17h.92ZM118.23,79.01c0-1.55-1.2-2.77-2.76-2.77s-2.76,1.22-2.76,2.77,1.2,2.77,2.76,2.77,2.76-1.22,2.76-2.77Z"/>
  <path d="M130.21,73.63h-3.01v8.88h-.98v-8.88h-3.01v-.92h7v.92Z"/>
  <path d="M136.71,79.04c0,.14-.01.29-.03.43h-6.15c.2,1.43,1.3,2.31,2.79,2.31,1.11,0,1.88-.52,2.26-1.19l.81.48c-.59.95-1.67,1.61-3.08,1.61-2.21,0-3.73-1.55-3.73-3.67s1.48-3.67,3.66-3.67,3.47,1.78,3.47,3.7ZM130.53,78.58h5.23c-.2-1.54-1.32-2.34-2.52-2.34-1.47,0-2.52.97-2.7,2.34Z"/>
  <path d="M137.63,73.35c0-.36.29-.67.67-.67s.67.31.67.67-.29.67-.67.67-.67-.31-.67-.67ZM137.84,75.51h.92v7h-.92v-7Z"/>
  <path d="M140.35,72.29h.92v10.23h-.92v-10.23Z"/>
  <path d="M148.89,78.21v4.3h-.92v-4.3c0-1.25-.69-1.98-1.91-1.98s-2.27.73-2.27,2.61v3.67h-.92v-7h.92v1.09c.55-.88,1.36-1.26,2.35-1.26,1.71,0,2.75,1.12,2.75,2.87Z"/>
  <path d="M157.34,75.51v7h-.92v-1.37c-.59.94-1.58,1.54-2.83,1.54-1.97,0-3.61-1.6-3.61-3.67s1.64-3.67,3.61-3.67c1.25,0,2.24.6,2.83,1.54v-1.37h.92ZM156.42,79.01c0-1.55-1.21-2.77-2.76-2.77s-2.76,1.22-2.76,2.77,1.21,2.77,2.76,2.77,2.76-1.22,2.76-2.77Z"/>
  <path d="M164.98,78.21v4.3h-.92v-4.3c0-1.25-.69-1.98-1.91-1.98s-2.27.73-2.27,2.61v3.67h-.92v-9.81h.92v3.89c.55-.88,1.36-1.26,2.35-1.26,1.71,0,2.75,1.12,2.75,2.87Z"/>
  <path d="M176.58,78.14v4.37h-.92v-4.37c0-1.25-.71-1.91-1.71-1.91-1.08,0-1.95.66-1.95,2.4v3.88h-.92v-4.37c0-1.25-.64-1.91-1.64-1.91s-2.02.66-2.02,2.4v3.88h-.92v-7h.92v1.02c.55-.85,1.3-1.19,2.14-1.19.98,0,1.74.46,2.13,1.27.52-.87,1.37-1.27,2.27-1.27,1.54,0,2.62,1.05,2.62,2.8Z"/>
  <path d="M184.81,79.04c0,.14-.01.29-.03.43h-6.15c.2,1.43,1.3,2.31,2.79,2.31,1.11,0,1.88-.52,2.25-1.19l.81.48c-.59.95-1.67,1.61-3.08,1.61-2.21,0-3.73-1.55-3.73-3.67s1.48-3.67,3.66-3.67,3.47,1.78,3.47,3.7ZM178.63,78.58h5.22c-.2-1.54-1.32-2.34-2.52-2.34-1.47,0-2.52.97-2.7,2.34Z"/>
  <path d="M193.34,79.01c0,2.07-1.64,3.67-3.61,3.67-1.25,0-2.24-.6-2.83-1.54v1.37h-.92v-9.81h.92v4.17c.59-.94,1.58-1.54,2.83-1.54,1.98,0,3.61,1.6,3.61,3.67ZM192.41,79.01c0-1.55-1.2-2.77-2.76-2.77s-2.76,1.22-2.76,2.77,1.2,2.77,2.76,2.77,2.76-1.22,2.76-2.77Z"/>
  <path d="M201.26,79.04c0,.14-.01.29-.03.43h-6.15c.2,1.43,1.3,2.31,2.79,2.31,1.11,0,1.88-.52,2.25-1.19l.81.48c-.59.95-1.67,1.61-3.08,1.61-2.21,0-3.73-1.55-3.73-3.67s1.48-3.67,3.66-3.67,3.47,1.78,3.47,3.7ZM195.08,78.58h5.22c-.2-1.54-1.32-2.34-2.52-2.34-1.47,0-2.52.97-2.7,2.34Z"/>
  <path d="M209.38,72.71v9.81h-.92v-1.37c-.59.94-1.58,1.54-2.83,1.54-1.97,0-3.61-1.6-3.61-3.67s1.64-3.67,3.61-3.67c1.25,0,2.24.6,2.83,1.54v-4.17h.92ZM208.45,79.01c0-1.55-1.21-2.77-2.76-2.77s-2.76,1.22-2.76,2.77,1.21,2.77,2.76,2.77,2.76-1.22,2.76-2.77Z"/>
  <path d="M210.78,73.35c0-.36.29-.67.67-.67s.67.31.67.67-.29.67-.67.67-.67-.31-.67-.67ZM210.99,75.51h.92v7h-.92v-7Z"/>
  <path d="M219.54,78.21v4.3h-.92v-4.3c0-1.25-.69-1.98-1.91-1.98s-2.27.73-2.27,2.61v3.67h-.92v-7h.92v1.09c.55-.88,1.36-1.26,2.35-1.26,1.71,0,2.75,1.12,2.75,2.87Z"/>
  <path d="M228,75.51v6.72c0,2.13-1.71,3.25-3.52,3.25-1.61,0-2.77-.62-3.32-1.71l.81-.46c.35.71.99,1.27,2.51,1.27,1.62,0,2.59-.92,2.59-2.35v-1.09c-.59.94-1.58,1.54-2.83,1.54-1.97,0-3.61-1.6-3.61-3.67s1.64-3.67,3.61-3.67c1.25,0,2.24.6,2.83,1.54v-1.37h.92ZM227.07,79.01c0-1.55-1.21-2.77-2.76-2.77s-2.76,1.22-2.76,2.77,1.21,2.77,2.76,2.77,2.76-1.22,2.76-2.77Z"/>
  <path d="M235.53,75.51v7h-.92v-1.09c-.55.88-1.36,1.26-2.35,1.26-1.71,0-2.75-1.12-2.75-2.87v-4.3h.92v4.3c0,1.25.69,1.98,1.9,1.98s2.27-.73,2.27-2.61v-3.67h.92Z"/>
  <path d="M243.16,78.21v4.3h-.92v-4.3c0-1.25-.69-1.98-1.91-1.98s-2.27.73-2.27,2.61v3.67h-.92v-7h.92v1.09c.55-.88,1.36-1.26,2.35-1.26,1.71,0,2.75,1.12,2.75,2.87Z"/>
  <path d="M251.62,75.51v6.72c0,2.13-1.71,3.25-3.52,3.25-1.61,0-2.77-.62-3.32-1.71l.81-.46c.35.71.99,1.27,2.51,1.27,1.62,0,2.59-.92,2.59-2.35v-1.09c-.59.94-1.58,1.54-2.83,1.54-1.97,0-3.61-1.6-3.61-3.67s1.64-3.67,3.61-3.67c1.25,0,2.24.6,2.83,1.54v-1.37h.92ZM250.69,79.01c0-1.55-1.21-2.77-2.76-2.77s-2.76,1.22-2.76,2.77,1.21,2.77,2.76,2.77,2.76-1.22,2.76-2.77Z"/>
  <path d="M259.97,79.04c0,.14-.01.29-.03.43h-6.15c.2,1.43,1.3,2.31,2.79,2.31,1.11,0,1.88-.52,2.25-1.19l.81.48c-.59.95-1.67,1.61-3.08,1.61-2.21,0-3.73-1.55-3.73-3.67s1.48-3.67,3.66-3.67,3.47,1.78,3.47,3.7ZM253.8,78.58h5.22c-.2-1.54-1.32-2.34-2.52-2.34-1.47,0-2.52.97-2.7,2.34Z"/>
  <path d="M267.16,78.21v4.3h-.92v-4.3c0-1.25-.69-1.98-1.91-1.98s-2.27.73-2.27,2.61v3.67h-.92v-7h.92v1.09c.55-.88,1.36-1.26,2.35-1.26,1.71,0,2.75,1.12,2.75,2.87Z"/>
  <path d="M268.17,76.14c0-.43.34-.77.77-.77s.77.34.77.77-.34.77-.77.77-.77-.34-.77-.77ZM268.17,81.88c0-.43.34-.77.77-.77s.77.34.77.77-.34.77-.77.77-.77-.34-.77-.77Z"/>
  <path d="M15.82,105.51h.92v7.56c0,1.68-.91,2.55-2.52,2.41v-.9c1.08.11,1.6-.31,1.6-1.51v-7.56ZM16.95,103.35c0,.36-.29.67-.67.67s-.67-.31-.67-.67.29-.67.67-.67.67.31.67.67Z"/>
  <path d="M17.9,109.01c0-2.07,1.64-3.67,3.68-3.67s3.68,1.6,3.68,3.67-1.64,3.67-3.68,3.67-3.68-1.6-3.68-3.67ZM24.34,109.01c0-1.55-1.2-2.77-2.76-2.77s-2.76,1.22-2.76,2.77,1.2,2.77,2.76,2.77,2.76-1.22,2.76-2.77Z"/>
  <path d="M33.19,109.04c0,.14-.01.29-.03.43h-6.15c.2,1.43,1.3,2.31,2.79,2.31,1.11,0,1.88-.52,2.26-1.19l.81.48c-.59.95-1.67,1.61-3.08,1.61-2.21,0-3.73-1.55-3.73-3.67s1.48-3.67,3.66-3.67,3.47,1.78,3.47,3.7ZM27.01,108.58h5.23c-.2-1.54-1.32-2.34-2.52-2.34-1.47,0-2.52.97-2.7,2.34Z"/>
  <path d="M34.24,107.74h5.04v.9h-5.04v-.9Z"/>
  <path d="M40.4,109.01c0-2.07,1.57-3.67,3.68-3.67,1.39,0,2.56.73,3.07,1.83l-.76.43c-.38-.83-1.26-1.37-2.31-1.37-1.55,0-2.76,1.22-2.76,2.77s1.2,2.77,2.76,2.77c1.06,0,1.92-.56,2.37-1.37l.77.45c-.57,1.11-1.76,1.82-3.14,1.82-2.12,0-3.68-1.6-3.68-3.67Z"/>
  <path d="M48.23,102.29h.92v10.23h-.92v-10.23Z"/>
  <path d="M56.66,105.51v7h-.92v-1.09c-.55.88-1.36,1.26-2.35,1.26-1.71,0-2.75-1.12-2.75-2.87v-4.3h.92v4.3c0,1.25.69,1.98,1.91,1.98s2.27-.73,2.27-2.61v-3.67h.92Z"/>
  <path d="M65.64,109.01c0,2.07-1.64,3.67-3.61,3.67-1.25,0-2.24-.6-2.83-1.54v1.37h-.92v-9.81h.92v4.17c.59-.94,1.58-1.54,2.83-1.54,1.98,0,3.61,1.6,3.61,3.67ZM64.72,109.01c0-1.55-1.2-2.77-2.76-2.77s-2.76,1.22-2.76,2.77,1.2,2.77,2.76,2.77,2.76-1.22,2.76-2.77Z"/>
  <path d="M66.38,111.88c0-.43.34-.77.77-.77s.77.34.77.77-.34.77-.77.77-.77-.34-.77-.77Z"/>
  <path d="M76.01,105.51v7h-.92v-1.37c-.59.94-1.58,1.54-2.83,1.54-1.98,0-3.61-1.6-3.61-3.67s1.64-3.67,3.61-3.67c1.25,0,2.24.6,2.83,1.54v-1.37h.92ZM75.09,109.01c0-1.55-1.2-2.77-2.76-2.77s-2.76,1.22-2.76,2.77,1.2,2.77,2.76,2.77,2.76-1.22,2.76-2.77Z"/>
  <path d="M79.23,106.41v4.24c0,1.2.66,1.11,2.02,1.05v.81c-1.89.28-2.94-.18-2.94-1.86v-4.24h-1.47v-.9h1.47v-1.68l.92-.28v1.96h2.02v.9h-2.02Z"/>
  <path d="M81.74,113.92l5.6-12.61h.7l-5.6,12.61h-.7Z"/>
  <path d="M94.67,105.51v9.81h-.92v-4.17c-.59.94-1.58,1.54-2.83,1.54-1.98,0-3.61-1.6-3.61-3.67s1.64-3.67,3.61-3.67c1.25,0,2.24.6,2.83,1.54v-1.37h.92ZM93.75,109.01c0-1.55-1.2-2.77-2.76-2.77s-2.76,1.22-2.76,2.77,1.2,2.77,2.76,2.77,2.76-1.22,2.76-2.77Z"/>
  <path d="M102.21,105.51v7h-.92v-1.09c-.55.88-1.36,1.26-2.35,1.26-1.71,0-2.75-1.12-2.75-2.87v-4.3h.92v4.3c0,1.25.69,1.98,1.91,1.98s2.27-.73,2.27-2.61v-3.67h.92Z"/>
  <path d="M103.61,103.35c0-.36.29-.67.67-.67s.67.31.67.67-.29.67-.67.67-.67-.31-.67-.67ZM103.82,105.51h.92v7h-.92v-7Z"/>
  <path d="M111.08,111.62v.9h-5.32v-.62l3.89-5.49h-3.75v-.9h5.04v.62l-3.89,5.49h4.03Z"/>
  <path d="M114.99,109.01c0-2.07,1.64-3.67,3.68-3.67s3.68,1.6,3.68,3.67-1.64,3.67-3.68,3.67-3.68-1.6-3.68-3.67ZM121.44,109.01c0-1.55-1.2-2.77-2.76-2.77s-2.76,1.22-2.76,2.77,1.2,2.77,2.76,2.77,2.76-1.22,2.76-2.77Z"/>
  <path d="M130.49,102.71v9.81h-.92v-1.37c-.59.94-1.58,1.54-2.83,1.54-1.98,0-3.61-1.6-3.61-3.67s1.64-3.67,3.61-3.67c1.25,0,2.24.6,2.83,1.54v-4.17h.92ZM129.56,109.01c0-1.55-1.2-2.77-2.76-2.77s-2.76,1.22-2.76,2.77,1.2,2.77,2.76,2.77,2.76-1.22,2.76-2.77Z"/>
  <path d="M138.84,109.04c0,.14-.01.29-.03.43h-6.15c.2,1.43,1.3,2.31,2.79,2.31,1.11,0,1.88-.52,2.26-1.19l.81.48c-.59.95-1.67,1.61-3.08,1.61-2.21,0-3.73-1.55-3.73-3.67s1.48-3.67,3.66-3.67,3.47,1.78,3.47,3.7ZM132.66,108.58h5.23c-.2-1.54-1.32-2.34-2.52-2.34-1.47,0-2.52.97-2.7,2.34Z"/>
  <path d="M143.14,105.4v.9c-1.12,0-2.21.59-2.21,2.33v3.89h-.92v-7h.92v1.16c.49-.98,1.32-1.27,2.21-1.27Z"/>
  <path d="M146.99,103.35c0-.36.29-.67.67-.67s.67.31.67.67-.29.67-.67.67-.67-.31-.67-.67ZM147.2,105.51h.92v7h-.92v-7Z"/>
  <path d="M155.75,108.21v4.3h-.92v-4.3c0-1.25-.69-1.98-1.91-1.98s-2.27.73-2.27,2.61v3.67h-.92v-7h.92v1.09c.55-.88,1.36-1.26,2.35-1.26,1.71,0,2.75,1.12,2.75,2.87Z"/>
  <path d="M167.28,102.71v9.81h-.92v-1.37c-.59.94-1.58,1.54-2.83,1.54-1.97,0-3.61-1.6-3.61-3.67s1.64-3.67,3.61-3.67c1.25,0,2.24.6,2.83,1.54v-4.17h.92ZM166.36,109.01c0-1.55-1.21-2.77-2.76-2.77s-2.76,1.22-2.76,2.77,1.21,2.77,2.76,2.77,2.76-1.22,2.76-2.77Z"/>
  <path d="M175.64,109.04c0,.14-.01.29-.03.43h-6.15c.2,1.43,1.3,2.31,2.79,2.31,1.11,0,1.88-.52,2.25-1.19l.81.48c-.59.95-1.67,1.61-3.08,1.61-2.21,0-3.73-1.55-3.73-3.67s1.48-3.67,3.66-3.67,3.47,1.78,3.47,3.7ZM169.46,108.58h5.22c-.2-1.54-1.32-2.34-2.52-2.34-1.47,0-2.52.97-2.7,2.34Z"/>
  <path d="M179.94,105.4v.9c-1.12,0-2.21.59-2.21,2.33v3.89h-.92v-7h.92v1.16c.49-.98,1.32-1.27,2.21-1.27Z"/>
  <path d="M184.33,105.51h.92v7.56c0,1.68-.91,2.55-2.52,2.41v-.9c1.08.11,1.6-.31,1.6-1.51v-7.56ZM185.47,103.35c0,.36-.29.67-.67.67s-.67-.31-.67-.67.29-.67.67-.67.67.31.67.67Z"/>
  <path d="M186.41,109.01c0-2.07,1.64-3.67,3.68-3.67s3.68,1.6,3.68,3.67-1.64,3.67-3.68,3.67-3.68-1.6-3.68-3.67ZM192.85,109.01c0-1.55-1.21-2.77-2.76-2.77s-2.76,1.22-2.76,2.77,1.21,2.77,2.76,2.77,2.76-1.22,2.76-2.77ZM188.13,103.83c0-.35.28-.63.63-.63s.63.28.63.63-.28.63-.63.63-.63-.28-.63-.63ZM190.79,103.83c0-.35.28-.63.63-.63s.63.28.63.63-.28.63-.63.63-.63-.28-.63-.63Z"/>
  <path d="M205.06,105.51v7h-.92v-1.37c-.59.94-1.58,1.54-2.83,1.54-1.97,0-3.61-1.6-3.61-3.67s1.64-3.67,3.61-3.67c1.25,0,2.24.6,2.83,1.54v-1.37h.92ZM204.14,109.01c0-1.55-1.21-2.77-2.76-2.77s-2.76,1.22-2.76,2.77,1.21,2.77,2.76,2.77,2.76-1.22,2.76-2.77ZM199.44,103.83c0-.35.28-.63.63-.63s.63.28.63.63-.28.63-.63.63-.63-.28-.63-.63ZM202.1,103.83c0-.35.28-.63.63-.63s.63.28.63.63-.28.63-.63.63-.63-.28-.63-.63Z"/>
  <path d="M214.04,109.01c0,2.07-1.64,3.67-3.61,3.67-1.25,0-2.24-.6-2.83-1.54v4.17h-.92v-9.81h.92v1.37c.59-.94,1.58-1.54,2.83-1.54,1.98,0,3.61,1.6,3.61,3.67ZM213.12,109.01c0-1.55-1.2-2.77-2.76-2.77s-2.76,1.22-2.76,2.77,1.2,2.77,2.76,2.77,2.76-1.22,2.76-2.77Z"/>
  <path d="M222.61,109.01c0,2.07-1.64,3.67-3.61,3.67-1.25,0-2.24-.6-2.83-1.54v4.17h-.92v-9.81h.92v1.37c.59-.94,1.58-1.54,2.83-1.54,1.98,0,3.61,1.6,3.61,3.67ZM221.69,109.01c0-1.55-1.2-2.77-2.76-2.77s-2.76,1.22-2.76,2.77,1.2,2.77,2.76,2.77,2.76-1.22,2.76-2.77Z"/>
  <path d="M223.35,111.88c0-.43.34-.77.77-.77s.77.34.77.77-.34.77-.77.77-.77-.34-.77-.77Z"/>
</svg>