<?xml version="1.0" encoding="utf-8"?><svg xmlns="http://www.w3.org/2000/svg" viewBox="0 0 220.03 36.27"><title>mysql-tutorial-logo</title><polygon points="15.99 36.27 0 36.27 0 4.41 15.99 36.27" style="fill:#7fbb42"/><polygon points="20.5 36.27 36.49 36.27 36.49 4.41 20.5 36.27" style="fill:#33a0da"/><polygon points="34.52 0 18.33 32.24 2.14 0 34.52 0" style="fill:#f05125"/><path d="M250.17,427.22h-2V415.85c0-.9.05-2,.16-3.28h0a11.42,11.42,0,0,1-.51,1.64l-5.78,13h-1l-5.79-12.92a8.68,8.68,0,0,1-.51-1.73h0c.07.67.1,1.78.1,3.3v11.35h-1.92V410.29h2.63l5.19,11.81a14,14,0,0,1,.77,2h.08c.34-.93.61-1.62.82-2.08l5.3-11.76h2.49Z" transform="translate(-188 -402.32)" style="fill:#f05225"/><path d="M263.76,415.13l-5.56,14c-1,2.5-2.39,3.74-4.18,3.74a4.59,4.59,0,0,1-1.27-.14V431a3.64,3.64,0,0,0,1.14.21,2.39,2.39,0,0,0,2.21-1.74l1-2.3-4.72-12.07h2.16l3.26,9.31a9,9,0,0,1,.25.92h.07c0-.19.12-.49.24-.89l3.43-9.34Z" transform="translate(-188 -402.32)" style="fill:#f05225"/><path d="M274.92,423a4.17,4.17,0,0,1-1.31,3.19,6.12,6.12,0,0,1-4.31,1.38,8.42,8.42,0,0,1-2.1-.3,5.47,5.47,0,0,1-1.72-.67V424.2a5.89,5.89,0,0,0,2,1.13,6.34,6.34,0,0,0,2.1.39c2.17,0,3.26-.84,3.26-2.54a2.7,2.7,0,0,0-.83-1.94,12.57,12.57,0,0,0-2.73-1.88,9.63,9.63,0,0,1-2.92-2.27,4.32,4.32,0,0,1,.59-5.77,5.74,5.74,0,0,1,3.94-1.32,7,7,0,0,1,3.33.61v2.22a5.38,5.38,0,0,0-3.44-1,3.52,3.52,0,0,0-2.36.75,2.29,2.29,0,0,0-.82,1.81,2.73,2.73,0,0,0,.75,2,12.18,12.18,0,0,0,2.54,1.72,11.05,11.05,0,0,1,3,2.2A4,4,0,0,1,274.92,423Z" transform="translate(-188 -402.32)" style="fill:#f05225"/><path d="M292.87,418.54a9.94,9.94,0,0,1-1.59,5.79,7.09,7.09,0,0,1-4.48,2.94l3.94,4.11H288l-3.33-3.86A7.34,7.34,0,0,1,279,425.1a8.78,8.78,0,0,1-2.14-6.14,9.48,9.48,0,0,1,2.06-6.36,7.74,7.74,0,0,1,6.22-2.6,7.21,7.21,0,0,1,5.59,2.37A8.82,8.82,0,0,1,292.87,418.54Zm-2.08.26a7.76,7.76,0,0,0-1.61-5.24,5.35,5.35,0,0,0-4.25-1.77,5.46,5.46,0,0,0-4.33,1.93,8.57,8.57,0,0,0,0,10.14,5.3,5.3,0,0,0,4.21,1.86,5.52,5.52,0,0,0,4.33-1.76A7.4,7.4,0,0,0,290.79,418.8Z" transform="translate(-188 -402.32)" style="fill:#f05225"/><path d="M304.77,427.22H296V410.29h2v15.14h6.8Z" transform="translate(-188 -402.32)" style="fill:#f05225"/><path d="M315.48,412.08H310.6v15.14h-2V412.08h-4.89v-1.79h11.75Z" transform="translate(-188 -402.32)" style="fill:#777677"/><path d="M330.29,420.37q0,7.15-6.44,7.15-6.17,0-6.16-6.87V410.29h2v10.24q0,5.19,4.41,5.19c2.82,0,4.23-1.67,4.23-5v-10.4h2Z" transform="translate(-188 -402.32)" style="fill:#777677"/><path d="M344.29,412.08h-4.88v15.14h-2V412.08h-4.88v-1.79h11.75Z" transform="translate(-188 -402.32)" style="fill:#777677"/><path d="M361,418.54a9.4,9.4,0,0,1-2.22,6.59,7.57,7.57,0,0,1-5.86,2.39,7.45,7.45,0,0,1-5.82-2.43A8.85,8.85,0,0,1,345,419a9.43,9.43,0,0,1,2.11-6.42,7.69,7.69,0,0,1,6.12-2.54,7.24,7.24,0,0,1,5.64,2.37A8.81,8.81,0,0,1,361,418.54Zm-2.08.26a7.76,7.76,0,0,0-1.6-5.24,5.37,5.37,0,0,0-4.26-1.77,5.43,5.43,0,0,0-4.32,1.93,8.53,8.53,0,0,0,0,10.14,5.28,5.28,0,0,0,4.2,1.86,5.55,5.55,0,0,0,4.34-1.76A7.39,7.39,0,0,0,358.89,418.8Z" transform="translate(-188 -402.32)" style="fill:#777677"/><path d="M375,427.22H372.6l-2.22-5.1q-.92-2.1-2.58-2.1h-1.73v7.2h-2V410.29h5.05a5.5,5.5,0,0,1,3.88,1.28,4.2,4.2,0,0,1,1.28,3.22,4.59,4.59,0,0,1-1,3.06,4.91,4.91,0,0,1-2.74,1.64v.05a3.58,3.58,0,0,1,1.74,2ZM372.23,415a2.65,2.65,0,0,0-.89-2.11,3.79,3.79,0,0,0-2.55-.77h-2.72v6.14h2.62a3.65,3.65,0,0,0,2.56-.9A3.07,3.07,0,0,0,372.23,415Z" transform="translate(-188 -402.32)" style="fill:#777677"/><path d="M379.7,427.22h-2V410.29h2Z" transform="translate(-188 -402.32)" style="fill:#777677"/><path d="M397,427.22h-2.2L393,422.49h-7.2l-1.68,4.73h-2.2l6.47-16.93h2.06Zm-4.64-6.53-2.66-7.2a9.64,9.64,0,0,1-.27-1.15h-.05a6.44,6.44,0,0,1-.26,1.15l-2.63,7.2Z" transform="translate(-188 -402.32)" style="fill:#777677"/><path d="M408,427.22h-8.79V410.29h2v15.14H408Z" transform="translate(-188 -402.32)" style="fill:#777677"/></svg>